<?xml version="1.0" ?><svg height="32px" id="Layer_11" style="enable-background:new 0 0 32 32;" version="1.0" viewBox="0 0 32 32" width="32px" xml:space="preserve" xmlns="http://www.w3.org/2000/svg" xmlns:xlink="http://www.w3.org/1999/xlink"><style type="text/css">
	.Drop_x0020_Shadow{fill:none;}
	.Round_x0020_Corners_x0020_2_x0020_pt{fill:#FFFFFF;stroke:#231F20;stroke-miterlimit:10;}
	.Live_x0020_Reflect_x0020_X{fill:none;}
	.Bevel_x0020_Soft{fill:url(#SVGID_1_);}
	.Dusk{fill:#FFFFFF;}
	.Foliage_GS{fill:#FFDD00;}
	.Pompadour_GS{fill-rule:evenodd;clip-rule:evenodd;fill:#44ADE2;}
	.st0{fill:#F1612F;}
	.st1{fill:#983A21;}
	.st2{fill:none;stroke:#F1612F;stroke-width:0.2317;stroke-miterlimit:10;}
	.st3{fill:#FFFFFF;}
</style><linearGradient gradientUnits="userSpaceOnUse" id="SVGID_1_" x1="-141" x2="-140.2929" y1="-47" y2="-46.2929"><stop offset="0" style="stop-color:#DEDFE3"/><stop offset="0.1783" style="stop-color:#DADBDF"/><stop offset="0.3611" style="stop-color:#CECFD3"/><stop offset="0.546" style="stop-color:#B9BCBF"/><stop offset="0.7324" style="stop-color:#9CA0A2"/><stop offset="0.9181" style="stop-color:#787D7E"/><stop offset="1" style="stop-color:#656B6C"/></linearGradient><g id="XMLID_273_"><path class="st0" d="M27.3,31.5H4.7c-2.4,0-4.3-1.9-4.3-4.3V4.7c0-2.4,1.9-4.3,4.3-4.3h22.5c2.4,0,4.3,1.9,4.3,4.3   v22.5C31.6,29.6,29.6,31.5,27.3,31.5z" id="XMLID_50_"/><polygon class="st1" id="XMLID_49_" points="31.6,31.6 0.4,31.6 0.4,23.8 31.6,23.7  "/><path class="st2" d="M7.3,14.2C7.2,14.1,7.1,14,7,14c-1.1-0.7-2.3-0.8-3.4-0.2c-2.2,1.1-2.4,4.1-0.5,5.6   c0.1,0.1,0.2,0.2,0.2,0.3c-0.2,1.5,0.1,2.8,0.9,4.1c1,1.7,2.5,2.8,4.2,3.7c2.7,1.4,5.5,1.9,8.5,1.8c1.9-0.1,3.7-0.4,5.5-1   c2-0.7,3.8-1.8,5.2-3.5c1.1-1.4,1.7-2.9,1.6-4.7c0-0.4,0.1-0.6,0.3-0.8c1.4-1.2,1.6-3.2,0.5-4.6c-1.1-1.4-3.1-1.7-4.6-0.6   c-0.2,0.1-0.3,0.1-0.5,0c-1.8-1.1-3.8-1.8-6-2.1c-0.6-0.1-1.3-0.1-2-0.2c0.6-1.8,1.2-3.5,1.9-5.3c0.1,0,0.1,0,0.1,0   c1.5,0.3,2.9,0.7,4.4,1c0.2,0,0.2,0.2,0.2,0.3c0.3,1.7,1.8,2.8,3.4,2.4c1.4-0.3,2.3-1.8,2-3.2c-0.3-1.5-1.7-2.4-3.2-2.1   c-1,0.2-1.6,0.8-2,1.6c-1.9-0.4-3.7-0.9-5.6-1.3c-0.1,0.1-0.1,0.2-0.1,0.4c-0.7,2-1.4,4-2.1,6c-0.1,0.2-0.2,0.2-0.4,0.3   c-1,0.1-2.1,0.2-3.1,0.4C10.7,12.5,8.9,13.2,7.3,14.2z" id="XMLID_392_"/><g id="XMLID_210_"><path class="st3" d="M6.9,14.2c1.6-1,3.3-1.7,5.1-2c1-0.2,2.1-0.3,3.1-0.4c0.2,0,0.3-0.1,0.4-0.3    c0.7-2,1.4-4,2.1-6c0-0.1,0.1-0.2,0.1-0.4c1.9,0.4,3.7,0.9,5.6,1.3c0.4-0.9,1.1-1.4,2-1.6c1.5-0.3,2.9,0.7,3.2,2.1    c0.3,1.4-0.6,2.9-2,3.2c-1.6,0.4-3.1-0.6-3.4-2.4c0-0.2,0-0.3-0.2-0.3c-1.5-0.3-2.9-0.7-4.4-1c0,0,0,0-0.1,0    c-0.6,1.7-1.2,3.5-1.9,5.3c0.7,0.1,1.3,0.1,2,0.2c2.1,0.3,4.1,0.9,6,2.1c0.2,0.1,0.3,0.1,0.5,0c1.5-1.1,3.5-0.8,4.6,0.6    c1.1,1.4,0.9,3.4-0.5,4.6c-0.3,0.2-0.4,0.4-0.3,0.8c0.2,1.8-0.5,3.4-1.6,4.7c-1.4,1.7-3.2,2.7-5.2,3.5c-1.8,0.6-3.6,1-5.5,1    c-3,0.1-5.8-0.4-8.5-1.8c-1.7-0.9-3.2-2-4.2-3.7c-0.8-1.3-1-2.6-0.9-4.1c0-0.1-0.1-0.3-0.2-0.3c-1.9-1.5-1.7-4.5,0.5-5.6    c1.2-0.6,2.3-0.5,3.4,0.2C6.7,14,6.8,14.1,6.9,14.2z M15.8,28.2c1.6,0,3.1-0.2,4.7-0.6c2.1-0.6,4.1-1.5,5.6-3.2    c2-2.1,2.2-4.9,0.4-7.2c-1-1.3-2.3-2.2-3.8-2.9c-4.1-1.8-8.3-1.9-12.5-0.5c-1.9,0.6-3.7,1.6-5,3.2c-1.7,2-1.8,4.6-0.3,6.7    c0.7,1,1.6,1.7,2.6,2.4C10.1,27.6,12.9,28.2,15.8,28.2z M24.2,7.6c0,0.9,0.7,1.7,1.6,1.7c0.9,0,1.7-0.8,1.7-1.7    c0-0.9-0.8-1.7-1.6-1.7C25,5.9,24.2,6.6,24.2,7.6z M28.4,18.4c0.9-0.7,1.1-2.2,0.3-3.1c-0.8-1-2.2-1.2-3-0.5    C26.9,15.8,27.9,16.9,28.4,18.4z M5.9,14.8c-0.8-0.7-2.2-0.4-3,0.5c-0.7,0.9-0.6,2.3,0.2,3c0.4-0.6,0.7-1.3,1.2-1.9    C4.8,15.9,5.3,15.4,5.9,14.8z" id="XMLID_386_"/><path class="st3" d="M11.7,21c-1.1,0-2-0.9-2-2c0-1.1,0.9-2.1,2-2.1c1.1,0,2.1,0.9,2.1,2    C13.7,20.1,12.8,21,11.7,21z" id="XMLID_368_"/><path class="st3" d="M20.2,21c-1.1,0-2.1-0.9-2.1-2c0-1.1,0.9-2.1,2.1-2c1.1,0,2,0.9,2,2    C22.3,20.1,21.4,21,20.2,21z" id="XMLID_367_"/><path class="st3" d="M15.8,26.1c-1.3,0-2.5-0.2-3.7-0.9c-0.3-0.2-0.6-0.4-0.9-0.6c-0.3-0.3-0.4-0.6-0.1-0.9    c0.2-0.2,0.5-0.2,0.8,0c0.7,0.6,1.6,0.9,2.5,1.1c1.5,0.2,3,0.2,4.5-0.5c0.4-0.2,0.7-0.4,1-0.6c0.3-0.2,0.6-0.2,0.8,0    c0.2,0.2,0.2,0.6-0.1,0.8c-0.8,0.7-1.7,1.1-2.7,1.2C17.2,26,16.5,26.1,15.8,26.1z" id="XMLID_366_"/></g></g></svg>